<?xml version="1.0" encoding="UTF-8" standalone="no"?>
<!-- Created with Inkscape (http://www.inkscape.org/) -->

<svg
   width="500"
   height="140"
   viewBox="0 0 500 140"
   version="1.1"
   id="svg1"
   inkscape:version="1.4.2 (ebf0e940d0, 2025-05-08)"
   sodipodi:docname="logo-banner-path.svg"
   xmlns:inkscape="http://www.inkscape.org/namespaces/inkscape"
   xmlns:sodipodi="http://sodipodi.sourceforge.net/DTD/sodipodi-0.dtd"
   xmlns="http://www.w3.org/2000/svg"
   xmlns:svg="http://www.w3.org/2000/svg">
  <sodipodi:namedview
     id="namedview1"
     pagecolor="#ffffff"
     bordercolor="#000000"
     borderopacity="0.25"
     inkscape:showpageshadow="2"
     inkscape:pageopacity="0.0"
     inkscape:pagecheckerboard="0"
     inkscape:deskcolor="#d1d1d1"
     inkscape:document-units="px"
     inkscape:zoom="0.78125"
     inkscape:cx="163.84"
     inkscape:cy="145.92"
     inkscape:window-width="1920"
     inkscape:window-height="1011"
     inkscape:window-x="0"
     inkscape:window-y="0"
     inkscape:window-maximized="1"
     inkscape:current-layer="layer1" />
  <defs
     id="defs1" />
  <g
     inkscape:label="Layer 1"
     inkscape:groupmode="layer"
     id="layer1"
     transform="translate(-27.196489,-201.06271)">
    <path
       style="font-size:135.147px;font-family:'Alfa Slab One';-inkscape-font-specification:'Alfa Slab One, Normal';stroke-width:23.9434;stroke-linejoin:round"
       d="m 124.21003,296.47031 q -19.32602,0 -30.137781,-10.00088 -10.81176,-10.13603 -10.81176,-29.46205 0,-19.32602 10.81176,-29.3269 10.811761,-10.13602 30.002631,-10.13602 9.32515,0 17.83941,2.56779 8.51426,2.56779 13.2444,5.81132 v 26.75911 h -23.24528 v -2.43265 q 0,-4.45985 -1.89206,-6.48706 -1.89206,-2.16235 -5.94647,-2.16235 -7.83852,0 -7.83852,8.64941 v 11.62264 q 0,10.54147 12.02808,10.54147 11.2172,0 26.08337,-2.43265 v 21.21808 q -4.595,2.02721 -12.97411,3.64897 -8.24397,1.62177 -17.16367,1.62177 z m 113.11808,-24.05617 h 4.3247 v 22.16411 h -42.16586 v -22.16411 h 3.78411 l -5.27073,-7.97367 h -1.35147 l -5.27073,7.97367 h 3.78411 v 22.16411 h -36.21939 v -22.16411 h 5.67617 l 16.35279,-14.59588 -17.16367,-16.21764 h -4.3247 v -22.16411 h 42.16586 v 22.16411 h -3.78412 l 5.27074,7.83853 h 1.35147 l 5.27073,-7.83853 H 205.974 v -22.16411 h 35.13823 v 22.16411 h -5.67618 l -15.5419,14.32558 z m 7.83848,30.00263 h 5.94646 v -60.81615 h -5.94646 v -22.16411 h 37.03028 v 9.19 q 3.37867,-4.3247 8.6494,-7.70338 5.40588,-3.37867 12.29838,-3.37867 13.785,0 20.67749,10.27117 7.02765,10.27117 7.02765,29.19175 0,18.92058 -7.02765,29.19175 -6.89249,10.27118 -20.67749,10.27118 -6.8925,0 -12.29838,-3.37868 -5.27073,-3.37868 -8.6494,-7.70338 v 17.02852 h 9.32514 v 22.16411 h -46.35542 z m 44.8688,-30.00263 q 3.91926,0 5.81132,-2.02721 2.02721,-2.16235 2.02721,-6.6222 v -13.5147 q 0,-4.45985 -2.02721,-6.48706 -1.89206,-2.16235 -5.81132,-2.16235 -3.91926,0 -5.94647,2.16235 -1.89205,2.02721 -1.89205,6.48706 v 13.5147 q 0,4.45985 1.89205,6.6222 2.02721,2.02721 5.94647,2.02721 z m 181.09712,0 v 22.16411 h -42.70645 v -22.16411 h 5.67617 v -22.16411 q 0,-4.45985 -1.89205,-6.48706 -1.89206,-2.16235 -5.67618,-2.16235 -8.10882,0 -8.10882,8.64941 v 22.16411 h 5.67618 v 22.16411 H 381.6652 v -22.16411 h 5.67617 v -22.16411 q 0,-4.45985 -1.89206,-6.48706 -1.89206,-2.16235 -5.67617,-2.16235 -8.10882,0 -8.10882,8.64941 v 22.16411 h 5.67617 v 22.16411 h -42.70645 v -22.16411 h 5.94647 v -30.81352 h -5.94647 v -22.16411 h 37.03028 v 10.54147 q 9.73058,-12.43352 24.32646,-12.43352 8.24397,0 13.37955,3.91926 5.27074,3.78411 7.43309,10.81176 4.86529,-7.02765 11.08205,-10.81176 6.35191,-3.78412 14.86617,-3.78412 11.2172,0 16.75823,7.02765 5.67617,7.02764 5.67617,19.32602 v 28.38087 z"
       id="text1"
       aria-label="cxpm" />
  </g>
</svg>
